<svg xmlns="http://www.w3.org/2000/svg" version="1.1" xmlns:xlink="http://www.w3.org/1999/xlink" xmlns:svgjs="http://svgjs.dev/svgjs" width="100%" height="100%" viewBox="0 0 1000 600"><rect width="1000" height="600" x="0" y="0" fill="#14b8a6"/><g><circle r="166.66666666666666" cx="352.53351847330725" cy="374.75578882835464" fill="#292826" transform="matrix(0.6725241885379399,0,0,0.67252418853794,0,47.9676730196028)"/><path d="M392.0353716479653 307.0583588220312L388.56732683359405 314.9812904711233Q373.7646965283509 308.6655015408862 359.131239140882 308.6655015408862L359.131239140882 308.6655015408862Q329.49778304409995 308.6655015408862 329.49778304409995 330.60158987894175L329.49778304409995 330.60158987894175Q329.49778304409995 340.1316642468888 336.2083087824769 348.3647462452335Q342.89063903455803 356.5978282435783 352.44890888880076 362.9700081464068Q361.97898325674777 369.370383535531 371.5090576246948 376.0809092739079Q381.06732747893756 382.7632395259891 387.7496577310187 392.1241409761619Q394.46018346939564 401.456846940039 394.46018346939564 412.42489110906683L394.46018346939564 412.42489110906683Q394.46018346939564 430.8929346327511 382.0823649855828 440.33842254181104Q369.7045465017699 449.7557149645753 347.88124010889715 449.7557149645753Q326.05793371602437 449.7557149645753 310.6068072259801 438.5903023914776L310.6068072259801 438.5903023914776L315.4846263551364 431.2876714408909Q330.1180837426054 440.8459412951337 347.57108975964445 440.8459412951337Q365.0240957766835 440.8459412951337 374.3568017405606 433.825265207504Q383.68950770443774 426.8327846061702 383.68950770443774 413.63729701978195L383.68950770443774 413.63729701978195Q383.68950770443774 404.5019594599747 377.00717745235653 396.26887746163004Q370.29665171397966 388.0639909495809 360.76657734603265 381.46624715638677Q351.2083074917899 374.86850336319276 341.67823312384286 367.96060922074594Q332.14815875589585 361.0527150782991 325.437633017519 351.5226407103521Q318.7271072791421 341.9643708561093 318.7271072791421 330.9963266870816L318.7271072791421 330.9963266870816Q318.7271072791421 316.5884331899782 329.38500109891714 308.1579827875636Q340.0428949186922 299.7557278714446 358.22898357941955 299.7557278714446Q376.38687675385114 299.7557278714446 392.0353716479653 307.0583588220312L392.0353716479653 307.0583588220312Z " fill="#f9d342" transform="matrix(0.6725241885379399,0,0,0.67252418853794,0,47.9676730196028)"/><path d="M705.641757225014 329.4701810352343L667.7402136229824 410.58260748431417L663.412432893851 410.58260748431417L629.8386700209509 329.2917158505278Q626.938610769471 322.5546551278595 625.1762670704949 317.42378106754916L625.1762670704949 317.42378106754916L623.5700804081368 329.6263380718524L610.4082730360365 416.5165748758036L602.5334967608645 416.5165748758036L621.4731144878361 300.7149781494081L625.979360401674 300.7149781494081L661.806246231493 385.8428712543831Q664.5278402982664 391.77683864587243 666.1340269606243 397.0861778908892L666.1340269606243 397.0861778908892Q666.6248062185671 395.3238341919131 671.1087439843166 385.9990282910012L671.1087439843166 385.9990282910012L711.1072535066488 300.7149781494081L715.4350342357802 300.7149781494081L732.9469304851002 416.5165748758036L724.9159971733102 416.5165748758036L712.4011260957706 329.2917158505278Q711.1072535066488 321.1046255021196 711.1072535066488 316.93300180960637L711.1072535066488 316.93300180960637Q710.9510964700307 317.08915884622456 710.3933927678231 318.4499558796112Q709.8133809175272 319.83306106108614 708.4525838841405 322.956201793449Q707.0917868507538 326.0793425258118 705.641757225014 329.4701810352343L705.641757225014 329.4701810352343ZM795.9228325383875 411.05107859416864L795.9228325383875 411.05107859416864Q816.4686369277172 411.05107859416864 828.9165835609919 399.96392899428065Q841.3645301942665 388.89908754248097 841.3645301942665 366.5686313060869Q841.3645301942665 344.2381750696927 827.3103968986338 331.07636769759233Q813.2562636030011 317.8922521774035 792.7104592136716 317.8922521774035L792.7104592136716 317.8922521774035Q778.0763140677429 317.8922521774035 770.2238459406592 318.5391884719644L770.2238459406592 318.5391884719644L770.2238459406592 409.9356711897533Q779.8609659148074 411.05107859416864 795.9228325383875 411.05107859416864ZM792.7104592136716 311.31134849135333L792.7104592136716 311.31134849135333Q816.8032591490418 311.31134849135333 832.9320502168869 326.168575118165Q849.0831494328203 341.02580174497666 849.0831494328203 366.5686313060869Q849.0831494328203 392.111460867197 834.2259228060086 404.96095416606113Q819.368696179197 417.81044746492523 795.9228325383875 417.81044746492523L795.9228325383875 417.81044746492523Q779.6825007301009 417.81044746492523 762.5052267021055 416.2042608025673L762.5052267021055 416.2042608025673L762.5052267021055 312.2705988591505Q775.3547200009696 311.31134849135333 792.7104592136716 311.31134849135333ZM993.3053268237173 305.53353813648215L990.5837327569441 311.8021277492961Q978.8496468624952 306.8051025775156 967.2940261527528 306.8051025775156L967.2940261527528 306.8051025775156Q943.8481625119434 306.8051025775156 943.8481625119434 324.1608417902175L943.8481625119434 324.1608417902175Q943.8481625119434 331.7009958440649 949.1351936088718 338.21497508585014Q954.4445328538886 344.7289543276355 961.984686907736 349.7705957955926Q969.5471491096716 354.83454541163803 977.087303163519 360.1438846566548Q984.6497653654546 365.43091575358324 989.9367964623832 372.8372209189008Q995.2461357074 380.22121793612996 995.2461357074 388.89908754248097L995.2461357074 388.89908754248097Q995.2461357074 403.5109245403213 985.4528586966337 410.9841541499037Q975.6372735377793 418.4350756113979 958.3707669174305 418.4350756113979Q941.1042602970817 418.4350756113979 928.9017032927785 409.6010489684287L928.9017032927785 409.6010489684287L932.7610129120553 403.8232386135576Q944.3166336217978 411.38570081549324 958.1476854365474 411.38570081549324Q971.9564291032086 411.38570081549324 979.340426120438 405.830971941505Q986.7244231376671 400.29855121560524 986.7244231376671 389.8583379102781L986.7244231376671 389.8583379102781Q986.7244231376671 382.63049792966706 981.4373920407387 376.1165186878817Q976.1280527957219 369.62484759418476 968.5878987418745 364.40474094152114Q961.0254365399388 359.18463428885764 953.4852824860915 353.7191380072227Q945.9228202841558 348.2536417255877 940.6357891872274 340.7134876717404Q935.3264499422105 333.1510254698047 935.3264499422105 324.47315586345377L935.3264499422105 324.47315586345377Q935.3264499422105 313.07369219032955 943.7589299195902 306.4035559119261Q952.1914098969697 299.755727781611 966.580165413927 299.755727781611Q980.9466127827959 299.755727781611 993.3053268237173 305.53353813648215L993.3053268237173 305.53353813648215ZM1078.2770628920744 380.37737497274816L1032.0322719050164 380.37737497274816L1017.0858126858514 416.5165748758036L1009.545658632004 416.5165748758036L1053.2250125889068 311.6236625645896L1057.5527933180383 311.6236625645896L1101.5667694962654 416.5165748758036L1093.3796791478571 416.5165748758036L1078.2770628920744 380.37737497274816ZM1054.987356287883 323.5139054956567L1054.987356287883 323.5139054956567Q1052.578076294346 330.74174547626774 1050.6595755587518 335.5603054633418L1050.6595755587518 335.5603054633418L1034.5977089351713 374.10878535993425L1075.711625861919 374.10878535993425L1059.8059162749569 335.7164624999599Q1056.1250718403867 326.72627882037267 1054.987356287883 323.5139054956567ZM1122.7818183282443 404.62633194473653L1122.7818183282443 404.62633194473653L1122.7818183282443 312.2705988591505L1130.0096583088553 312.2705988591505L1130.0096583088553 399.96392899428065Q1130.0096583088553 412.99188747785126 1125.9941916529601 422.9413215252356Q1121.9787249970655 432.89075557262004 1116.6693857520486 438.356251854255Q1111.3600465070317 443.82174813588983 1103.0167991220055 449.75571552737927L1103.0167991220055 449.75571552737927L1099.6482687606713 444.9371555403052Q1122.7818183282443 428.07219558554596 1122.7818183282443 404.62633194473653ZM1175.9421352226773 416.5165748758036L1168.558138205448 416.5165748758036L1168.558138205448 312.2705988591505L1175.9421352226773 312.2705988591505L1175.9421352226773 416.5165748758036ZM1247.8859128074632 411.05107859416864L1247.8859128074632 411.05107859416864Q1268.4540253448813 411.05107859416864 1280.9019719781559 399.96392899428065Q1293.3499186114304 388.89908754248097 1293.3499186114304 366.5686313060869Q1293.3499186114304 344.2381750696927 1279.2957853157982 331.07636769759233Q1265.2416520201655 317.8922521774035 1244.6735394827474 317.8922521774035L1244.6735394827474 317.8922521774035Q1230.061702484907 317.8922521774035 1222.1869262097352 318.5391884719644L1222.1869262097352 318.5391884719644L1222.1869262097352 409.9356711897533Q1231.8240461838832 411.05107859416864 1247.8859128074632 411.05107859416864ZM1244.6735394827474 311.31134849135333L1244.6735394827474 311.31134849135333Q1268.7663394181177 311.31134849135333 1284.917438634051 326.168575118165Q1301.0685378499848 341.02580174497666 1301.0685378499848 366.5686313060869Q1301.0685378499848 392.111460867197 1286.2113112231727 404.96095416606113Q1271.3540845963612 417.81044746492523 1247.8859128074632 417.81044746492523L1247.8859128074632 417.81044746492523Q1231.6678891472652 417.81044746492523 1214.4906151192695 416.2042608025673L1214.4906151192695 416.2042608025673L1214.4906151192695 312.2705988591505Q1227.3401084181337 311.31134849135333 1244.6735394827474 311.31134849135333Z " fill="#292826" transform="matrix(0.6725241885379399,0,0,0.67252418853794,0,47.9676730196028)"/></g></svg>